# xmcd CD database file
# Copyright (C) 1995-1998 Ti Kan
#
# Track frame offsets:
#	150
#	23597
#	39185
#	54092
#	70512
#	85447
#	101837
#	117925
#	135167
#	157365
#
# Disc length: 2289 seconds
#
# Revision: 1
# Processed by: cddbd v1.4PL0 Copyright (c) Steve Scherf et al.
# Submitted via: CDex 1.30Release
#
DISCID=7508ef0a
DTITLE=Z.Z. Hill - In Memorium 1935 - 1984
DYEAR=1900
DGENRE=Blues
TTITLE0=Down Home Blues
TTITLE1=Bump And Grind
TTITLE2=Wang Dang Doodle
TTITLE3=When It Rains It Pours
TTITLE4=Givin' It Up For Your Love
TTITLE5=Someone Else Is Steppin' In
TTITLE6=I'm A Blues Man
TTITLE7=Please Don't Make Me Do Something Bad To You
TTITLE8=Everybody Knows About My Good Thing
TTITLE9=Get You Some Business
EXTD=ID3G:   0
EXTT0=
EXTT1=
EXTT2=
EXTT3=
EXTT4=
EXTT5=
EXTT6=
EXTT7=
EXTT8=
EXTT9=
PLAYORDER=
